# xmcd
#
# Track frame offsets:
#	150
#	16204
#	25818
#	38924
#	51089
#	63001
#	76487
#	89755
#	106738
#	117822
#	138733
#	152938
#	167997
#	184523
#	197399
#	213195
#	227762
#	241189
#	255921
#	265994
#
# Disc length: 3727 seconds
#
# Revision: 1
# Processed by: cddbd v1.5.2PL0 Copyright (c) Steve Scherf et al.
# Submitted via: audiograbber 1.83.01
#
DISCID=020e8d14
DTITLE=Charley Pride - 20 Classics
DYEAR=2004
DGENRE=Country
TTITLE0=It's Just a Matter of Time
TTITLE1=Billy Bayou
TTITLE2=Distant Drums
TTITLE3=Lovesick Blues
TTITLE4=Ramblin' Rose
TTITLE5=You've Got to Stand for Something
TTITLE6=I'll Be Leavin' Alone
TTITLE7=Hungar
TTITLE8=Walk on By
TTITLE9=You're So Good When You're Bad
TTITLE10=Sea of Heartbreak
TTITLE11=I Love You Because
TTITLE12=The Blizzard
TTITLE13=Hope You're Feeling Me (Like I'm Feeling You)
TTITLE14=Hello Love
TTITLE15=But I Do
TTITLE16=Bimbo
TTITLE17=Please Help Me, I'm Falling (In Love With You)
TTITLE18=Snow Flake
TTITLE19=Danny Boy
EXTD=
EXTT0=
EXTT1=
EXTT2=
EXTT3=
EXTT4=
EXTT5=
EXTT6=
EXTT7=
EXTT8=
EXTT9=
EXTT10=
EXTT11=
EXTT12=
EXTT13=
EXTT14=
EXTT15=
EXTT16=
EXTT17=
EXTT18=
EXTT19=
PLAYORDER=
